<svg xmlns="http://www.w3.org/2000/svg" width="245.646" height="56.685" viewBox="0 0 245.646 56.685"><g transform="translate(-44.82 -37.86)"><path d="M51.239,57.928A2.426,2.426,0,0,1,48.813,55.5V46.867H48a2.421,2.421,0,0,1-2.426-2.421V41.021A2.426,2.426,0,0,1,48,38.6H58.429a2.426,2.426,0,0,1,2.426,2.421v3.425a2.421,2.421,0,0,1-2.426,2.421h-.822V55.5a2.421,2.421,0,0,1-2.421,2.426Z" transform="translate(-0.419 -0.413)" fill="#2e465b"/><path d="M81.5,57.9a10.344,10.344,0,0,1-3.888-.756,10.163,10.163,0,0,1-3.288-2.17,9.863,9.863,0,0,1,.022-14.211,9.982,9.982,0,0,1,3.265-2.143,10.229,10.229,0,0,1,3.888-.76,10.333,10.333,0,0,1,3.881.756,10.136,10.136,0,0,1,3.3,2.165,9.907,9.907,0,0,1,0,14.2A10.3,10.3,0,0,1,81.5,57.9Zm0-11.847a1.065,1.065,0,0,0-.884.393,2.576,2.576,0,0,0,0,2.885,1.255,1.255,0,0,0,1.816,0,2.466,2.466,0,0,0-.027-2.855A1.065,1.065,0,0,0,81.5,46.052Z" transform="translate(-14.787)" fill="#2e465b"/><path d="M123.047,57.928a2.435,2.435,0,0,1-1.962-1l-.442-.641a2.426,2.426,0,0,1-2.293,1.639h-3.911A2.426,2.426,0,0,1,112,55.5V41.021a2.426,2.426,0,0,1,2.421-2.421h3.911a2.421,2.421,0,0,1,2.249,1.524l.34-.486A2.417,2.417,0,0,1,122.91,38.6h4.6a2.426,2.426,0,0,1,1.931,3.888l-4.233,5.568L129.874,54a2.426,2.426,0,0,1-1.909,3.919Z" transform="translate(-37.495 -0.413)" fill="#2e465b"/><path d="M152.367,57.9a10.327,10.327,0,0,1-3.888-.756,10.163,10.163,0,0,1-3.274-2.17,9.721,9.721,0,0,1-2.209-3.239A9.867,9.867,0,0,1,145.2,40.763a9.982,9.982,0,0,1,3.265-2.143,10.366,10.366,0,0,1,7.781,0,10.044,10.044,0,0,1,3.305,2.165,9.929,9.929,0,0,1,0,14.2,10.415,10.415,0,0,1-3.305,2.161,10.282,10.282,0,0,1-3.884.756Zm0-11.847a1.065,1.065,0,0,0-.884.393,2.576,2.576,0,0,0,0,2.885,1.239,1.239,0,0,0,1.8-.013,2,2,0,0,0,.442-1.436,1.94,1.94,0,0,0-.468-1.418,1.06,1.06,0,0,0-.888-.411Z" transform="translate(-54.35 0)" fill="#2e465b"/><path d="M63.675,119.259a20.874,20.874,0,0,1-7.512-1.286A17.2,17.2,0,0,1,50.122,114a18.019,18.019,0,0,1-3.919-6.023,19.747,19.747,0,0,1-.027-14.454,17.958,17.958,0,0,1,10.163-9.938,20.273,20.273,0,0,1,7.331-1.326,19.725,19.725,0,0,1,9.094,2.055,18.028,18.028,0,0,1,6.747,6.111,2.426,2.426,0,0,1-.963,3.535l-4.087,1.962H79.6a2.43,2.43,0,0,1,2.421,2.267c0,.239.027.495.035.778s0,.667,0,1.184c0,5.912-1.635,10.6-4.861,13.985S69.4,119.259,63.675,119.259Zm0-25.1a5.008,5.008,0,0,0-4.087,1.666,7.9,7.9,0,0,0-1.573,5.272,7.938,7.938,0,0,0,1.577,5.3,4.974,4.974,0,0,0,4.083,1.675,6.579,6.579,0,0,0,3.575-.884h-4.1a2.421,2.421,0,0,1-2.426-2.421V98.319A2.421,2.421,0,0,1,63.149,95.9h4.507a5.643,5.643,0,0,0-1.485-1.18,5.157,5.157,0,0,0-2.5-.583Z" transform="translate(0 -24.778)" fill="#2e465b"/><path d="M137.635,119.207a17.569,17.569,0,0,1-6.774-1.277,18.943,18.943,0,0,1-5.806-3.911,2.421,2.421,0,0,1-.4-3l3.778-6.235a2.43,2.43,0,0,1,1.86-1.158,1.738,1.738,0,0,1,.217,0,2.421,2.421,0,0,1,1.816.822,12.907,12.907,0,0,0,3.093,2.651,4.777,4.777,0,0,0,2.4.725,1.719,1.719,0,0,0,1.211-.34.442.442,0,0,0,.208-.442c0-.1,0-.442-.119-.548a10.933,10.933,0,0,0-3.248-1.184c-3.478-.937-5.93-2.209-7.512-3.835a9.783,9.783,0,0,1-2.541-7.026,11.816,11.816,0,0,1,3.707-8.952,12.985,12.985,0,0,1,9.315-3.442,19.363,19.363,0,0,1,5.515.782,18.116,18.116,0,0,1,4.98,2.386,2.43,2.43,0,0,1,.884,2.974L147.6,94.215a2.421,2.421,0,0,1-1.675,1.392,2.324,2.324,0,0,1-.548.066h-.163a11.184,11.184,0,0,1,3.747,2.338,9.969,9.969,0,0,1,2.209,3.592,12.863,12.863,0,0,1,.707,4.33,12.55,12.55,0,0,1-3.977,9.642A14.529,14.529,0,0,1,137.635,119.207Zm.862-25.77a8.838,8.838,0,0,0,2.209.791l.4.11c1.012.274,1.927.552,2.753.844l-.08-.062a8.5,8.5,0,0,0-2.28-1.441,5.249,5.249,0,0,0-2.046-.442A1.891,1.891,0,0,0,138.5,93.437Z" transform="translate(-44.364 -24.663)" fill="#2e465b"/><path d="M54.3,58.566V47.519H51.06V44.09H61.493v3.42H58.249V58.557Z" transform="translate(-3.483 -3.477)" fill="#47bda9"/><path d="M92.324,50.946a7.37,7.37,0,0,1-2.245,5.369,7.9,7.9,0,0,1-8.462,1.648,7.658,7.658,0,0,1-2.492-1.648,7.331,7.331,0,0,1-1.7-2.452,7.658,7.658,0,0,1,0-5.842,7.357,7.357,0,0,1,1.7-2.448,7.574,7.574,0,0,1,2.5-1.644,7.918,7.918,0,0,1,5.943,0,7.622,7.622,0,0,1,2.519,1.644,7.419,7.419,0,0,1,2.245,5.373ZM84.592,55.2A3.478,3.478,0,0,0,87.3,53.99a4.824,4.824,0,0,0-.013-6.085,3.632,3.632,0,0,0-5.417,0,4.889,4.889,0,0,0-.013,6.1A3.469,3.469,0,0,0,84.592,55.2Z" transform="translate(-17.877 -3.064)" fill="#47bda9"/><path d="M117.46,58.566V44.09h3.911v6.588l4.578-6.575h4.6l-5.338,7.048,5.815,7.415h-4.931l-4.715-6.5v6.5Z" transform="translate(-40.542 -3.477)" fill="#47bda9"/><path d="M163.164,50.946a7.371,7.371,0,0,1-2.245,5.369,7.9,7.9,0,0,1-8.462,1.648,7.613,7.613,0,0,1-2.5-1.648,7.331,7.331,0,0,1-1.692-2.452,7.658,7.658,0,0,1,0-5.842,7.357,7.357,0,0,1,1.7-2.448,7.512,7.512,0,0,1,2.5-1.644,7.918,7.918,0,0,1,5.943,0,7.622,7.622,0,0,1,2.519,1.644,7.419,7.419,0,0,1,2.245,5.373ZM155.427,55.2a3.482,3.482,0,0,0,2.718-1.206,4.816,4.816,0,0,0-.018-6.085,3.628,3.628,0,0,0-5.413,0A4.889,4.889,0,0,0,152.7,54,3.469,3.469,0,0,0,155.427,55.2Z" transform="translate(-57.415 -3.064)" fill="#47bda9"/><path d="M66.191,107.795v-6.447H82.646c0,.212.027.442.031.694s0,.623,0,1.114q0,7.954-4.189,12.311T66.7,119.84a18.3,18.3,0,0,1-6.628-1.122,14.653,14.653,0,0,1-5.2-3.433,15.466,15.466,0,0,1-3.4-5.214,17.361,17.361,0,0,1-.031-12.638,15.554,15.554,0,0,1,8.815-8.594,17.781,17.781,0,0,1,6.456-1.153A17.233,17.233,0,0,1,74.7,89.452a15.6,15.6,0,0,1,5.846,5.3l-7.264,3.486a8.837,8.837,0,0,0-2.925-2.651,7.618,7.618,0,0,0-3.641-.884,7.4,7.4,0,0,0-5.921,2.51,10.206,10.206,0,0,0-2.161,6.884A10.245,10.245,0,0,0,60.8,111a7.422,7.422,0,0,0,5.921,2.523,8.754,8.754,0,0,0,5.3-1.564,6,6,0,0,0,2.488-4.167Z" transform="translate(-3.042 -27.806)" fill="#fad80b"/><path d="M133.538,109.149a15.284,15.284,0,0,0,3.685,3.173,7.194,7.194,0,0,0,3.619,1.047,4.163,4.163,0,0,0,2.762-.884,2.855,2.855,0,0,0,1.083-2.289,2.987,2.987,0,0,0-.937-2.36,11.687,11.687,0,0,0-4.229-1.714q-4.516-1.215-6.381-3.168a7.445,7.445,0,0,1-1.869-5.351,9.411,9.411,0,0,1,2.952-7.189,10.772,10.772,0,0,1,7.649-2.784,16.729,16.729,0,0,1,4.821.685,15.677,15.677,0,0,1,4.313,2.068l-2.625,6.023a10.976,10.976,0,0,0-2.93-1.838,7.764,7.764,0,0,0-2.969-.619,3.941,3.941,0,0,0-2.457.725,2.254,2.254,0,0,0-.946,1.86,2.293,2.293,0,0,0,.831,1.847,9.111,9.111,0,0,0,3.2,1.326l.376.1q5.126,1.392,6.739,3.045a7.437,7.437,0,0,1,1.657,2.722,10.314,10.314,0,0,1,.566,3.513,10.2,10.2,0,0,1-3.208,7.861,12.107,12.107,0,0,1-8.564,2.969,15.1,15.1,0,0,1-5.846-1.091,16.469,16.469,0,0,1-5.073-3.42Z" transform="translate(-47.407 -27.778)" fill="#fad80b"/><path d="M208.411,119.6V136.53h-5.484v-2.748a7.954,7.954,0,0,1-2.651,2.581,6.924,6.924,0,0,1-3.442.817,6.628,6.628,0,0,1-5.4-2.47,10.126,10.126,0,0,1-2.028-6.628,9.638,9.638,0,0,1,2.121-6.579,7.148,7.148,0,0,1,5.7-2.435,6.4,6.4,0,0,1,3.292.809,6.761,6.761,0,0,1,2.373,2.51V119.6Zm-5.245,8.444a4.481,4.481,0,0,0-1.056-3.133,4.18,4.18,0,0,0-5.744,0,4.5,4.5,0,0,0-1.047,3.142,4.419,4.419,0,0,0,1.056,3.12,4.193,4.193,0,0,0,5.744,0A4.419,4.419,0,0,0,203.166,128.046Z" transform="translate(-80.7 -45.323)" fill="#2e465b"/><path d="M249.677,125.145A6.562,6.562,0,0,0,248,124.022a4.18,4.18,0,0,0-1.692-.354,3.6,3.6,0,0,0-2.824,1.175,4.6,4.6,0,0,0-1.047,3.181,4.339,4.339,0,0,0,1.087,3.093,3.835,3.835,0,0,0,2.934,1.158,4.03,4.03,0,0,0,1.7-.362,4.861,4.861,0,0,0,1.516-1.114v5.179a9.187,9.187,0,0,1-2.143.884,8.59,8.59,0,0,1-2.209.283,8.4,8.4,0,0,1-6.323-2.5,9.107,9.107,0,0,1-2.421-6.6,8.885,8.885,0,0,1,2.47-6.5,8.5,8.5,0,0,1,6.341-2.519,9.937,9.937,0,0,1,2.333.252,6.809,6.809,0,0,1,1.957.8Z" transform="translate(-107.027 -45.302)" fill="#2e465b"/><path d="M287.361,128.124a8.594,8.594,0,0,1-.711,3.469,9.018,9.018,0,0,1-2.068,2.947,9.5,9.5,0,0,1-3.093,1.98,10.194,10.194,0,0,1-7.256,0,9.142,9.142,0,0,1-3.044-1.98,8.767,8.767,0,0,1-2.748-6.416,9.063,9.063,0,0,1,5.775-8.4,10.605,10.605,0,0,1,7.313,0,9.306,9.306,0,0,1,5.112,4.914A8.762,8.762,0,0,1,287.361,128.124Zm-5.93,0a4.366,4.366,0,0,0-.954-2.983,3.606,3.606,0,0,0-5.17,0,5.161,5.161,0,0,0,0,5.956,3.65,3.65,0,0,0,5.188,0,4.383,4.383,0,0,0,.937-2.974Z" transform="translate(-124.808 -45.33)" fill="#2e465b"/><path d="M337.567,136.537V127.3a6,6,0,0,0-.548-3.036,2.063,2.063,0,0,0-1.882-.835,2.445,2.445,0,0,0-2.333,1.162q-.654,1.162-.654,4.768v7.176h-5.744V127.3a6.054,6.054,0,0,0-.539-3.053,2.063,2.063,0,0,0-1.874-.817,2.487,2.487,0,0,0-2.346,1.144q-.667,1.144-.672,4.785v7.176H315.16V119.609h5.864v2.969a7.4,7.4,0,0,1,2.439-2.651,6.138,6.138,0,0,1,3.261-.844,6.451,6.451,0,0,1,3.376.8,4.419,4.419,0,0,1,1.887,2.386,6.584,6.584,0,0,1,2.413-2.395,6.8,6.8,0,0,1,3.349-.787,6.531,6.531,0,0,1,2.673.508,4.83,4.83,0,0,1,1.918,1.533,4.908,4.908,0,0,1,.884,1.878,16.232,16.232,0,0,1,.261,3.486v10.057Z" transform="translate(-150.884 -45.33)" fill="#2e465b"/><path d="M407.337,136.537V127.3a6,6,0,0,0-.548-3.036,2.063,2.063,0,0,0-1.882-.835,2.45,2.45,0,0,0-2.333,1.162q-.658,1.162-.65,4.768v7.176h-5.766V127.3a6.114,6.114,0,0,0-.535-3.053,2.066,2.066,0,0,0-1.878-.817,2.493,2.493,0,0,0-2.346,1.144q-.672,1.144-.672,4.785v7.176h-5.8V119.609h5.864v2.969a7.4,7.4,0,0,1,2.439-2.651,6.16,6.16,0,0,1,3.261-.844,6.451,6.451,0,0,1,3.376.8,4.419,4.419,0,0,1,1.887,2.386,6.584,6.584,0,0,1,2.413-2.395,6.813,6.813,0,0,1,3.349-.787,6.531,6.531,0,0,1,2.673.508,4.83,4.83,0,0,1,1.918,1.533,4.983,4.983,0,0,1,.884,1.878,16.606,16.606,0,0,1,.256,3.486v10.057Z" transform="translate(-189.825 -45.33)" fill="#2e465b"/><path d="M471.058,129.253H458.187a4.326,4.326,0,0,0,1,3.022,3.637,3.637,0,0,0,2.8,1.065,4.684,4.684,0,0,0,2.284-.513,3.305,3.305,0,0,0,1.418-1.516l4.489,1.812a5.863,5.863,0,0,1-2.846,3,10.857,10.857,0,0,1-5.011,1.052,10.113,10.113,0,0,1-7.1-2.452,8.266,8.266,0,0,1-2.651-6.478,8.811,8.811,0,0,1,2.651-6.571,9.279,9.279,0,0,1,6.765-2.611,8.537,8.537,0,0,1,6.628,2.651,10.356,10.356,0,0,1,2.43,7.256Zm-5.886-3.371a3.619,3.619,0,0,0-1.1-2.311,3.208,3.208,0,0,0-2.289-.884,3.287,3.287,0,0,0-2.32.8,4.136,4.136,0,0,0-1.149,2.386Z" transform="translate(-227.577 -45.319)" fill="#2e465b"/><path d="M498.34,136.725V119.8h5.629v3.977a7.18,7.18,0,0,1,2.382-3.27,6.071,6.071,0,0,1,3.65-1.087h.716a5.757,5.757,0,0,1,.725.075l-.566,5.484a6.505,6.505,0,0,0-1.056-.27,6.736,6.736,0,0,0-1.007-.084,4.26,4.26,0,0,0-3.358,1.326,5.514,5.514,0,0,0-1.184,3.778v7.008Z" transform="translate(-253.122 -45.517)" fill="#2e465b"/><path d="M540.026,125.139a6.579,6.579,0,0,0-1.679-1.122,4.18,4.18,0,0,0-1.692-.354,3.6,3.6,0,0,0-2.824,1.175,4.6,4.6,0,0,0-1.047,3.181,4.322,4.322,0,0,0,1.091,3.093,3.822,3.822,0,0,0,2.934,1.153,4.021,4.021,0,0,0,1.7-.362,4.861,4.861,0,0,0,1.52-1.114v5.179a9.217,9.217,0,0,1-2.147.884,8.559,8.559,0,0,1-2.209.283,8.4,8.4,0,0,1-6.328-2.5,9.107,9.107,0,0,1-2.421-6.6,8.885,8.885,0,0,1,2.47-6.5,8.511,8.511,0,0,1,6.345-2.519,9.924,9.924,0,0,1,2.329.252,6.782,6.782,0,0,1,1.962.8Z" transform="translate(-269.073 -45.297)" fill="#2e465b"/><path d="M577.392,129.253H564.52a4.248,4.248,0,0,0,1.008,3.022,3.619,3.619,0,0,0,2.8,1.065,4.7,4.7,0,0,0,2.289-.513,3.318,3.318,0,0,0,1.414-1.516l4.494,1.812a5.89,5.89,0,0,1-2.85,3,10.844,10.844,0,0,1-4.989,1.052,10.1,10.1,0,0,1-7.1-2.452,8.286,8.286,0,0,1-2.651-6.478,8.8,8.8,0,0,1,2.651-6.571,9.279,9.279,0,0,1,6.761-2.611,8.529,8.529,0,0,1,6.628,2.651,10.383,10.383,0,0,1,2.43,7.256Zm-5.881-3.372a3.623,3.623,0,0,0-1.1-2.311,3.2,3.2,0,0,0-2.284-.884,3.3,3.3,0,0,0-2.324.8,4.136,4.136,0,0,0-1.149,2.386Z" transform="translate(-286.939 -45.319)" fill="#2e465b"/></g></svg>